<svg version="1.1" xmlns="http://www.w3.org/2000/svg" viewBox="74.58 60.25 504.17 285.92">
<g id="#0f172aff">
<path fill="#0f172a" opacity="1.00" d=" M 305.91 309.54 C 306.40 309.44 307.37 309.25 307.85 309.15 C 307.91 311.88 307.53 314.59 307.30 317.31 C 303.67 317.26 300.03 317.62 296.40 317.40 C 299.86 315.16 302.94 312.38 305.91 309.54 Z"/>
</g>
<g id="#db8c65ff">
<path fill="#db8c65" opacity="1.00" d=" M 295.67 62.58 C 310.92 59.58 326.57 60.31 342.04 60.48 C 353.05 61.65 364.16 62.26 374.92 65.08 C 384.50 67.57 394.43 69.01 403.61 72.84 C 389.09 73.52 374.52 72.81 359.98 72.92 C 331.31 72.80 302.63 72.82 273.95 72.96 C 267.22 72.82 260.46 73.22 253.75 72.60 C 267.21 67.43 281.43 64.60 295.67 62.58 Z"/>
<path fill="#db8c65" opacity="1.00" d=" M 232.38 82.20 C 240.57 81.68 248.79 82.58 257.00 82.38 C 294.00 82.34 330.99 82.28 367.98 82.41 C 383.32 82.81 398.67 82.42 414.01 82.07 C 418.55 82.20 423.39 81.43 427.60 83.59 C 432.73 85.96 437.72 88.62 442.89 90.92 C 446.52 92.51 449.53 95.19 453.23 96.67 C 458.48 98.93 462.48 103.25 467.66 105.62 C 468.50 107.19 465.96 107.21 465.04 107.35 C 459.36 107.54 453.65 107.61 448.01 106.95 C 384.34 106.91 320.66 106.60 256.99 107.04 C 247.02 107.58 236.96 107.76 227.01 106.94 C 213.42 106.69 199.88 107.90 186.28 107.60 C 186.31 107.29 186.35 106.69 186.37 106.38 C 191.17 103.60 195.47 100.02 200.41 97.46 C 210.92 92.09 221.16 85.99 232.38 82.20 Z"/>
<path fill="#db8c65" opacity="1.00" d=" M 230.96 116.33 C 234.94 116.52 238.92 116.49 242.89 116.14 C 242.84 116.78 242.73 118.07 242.68 118.71 C 236.18 123.88 231.78 131.10 225.58 136.61 C 223.59 138.33 222.19 141.45 219.06 140.81 C 206.38 140.11 193.70 141.35 181.01 140.86 C 170.13 140.57 159.24 140.58 148.35 140.63 C 147.67 138.41 150.36 137.78 151.51 136.44 C 157.30 130.90 162.96 125.18 169.32 120.28 C 170.77 119.30 171.66 117.77 172.62 116.36 C 192.06 116.65 211.51 116.41 230.96 116.33 Z"/>
<path fill="#db8c65" opacity="1.00" d=" M 255.25 116.55 C 329.15 116.14 403.05 116.84 476.95 116.18 C 478.57 116.30 480.54 115.86 481.88 117.06 C 489.32 123.29 496.54 129.81 503.49 136.60 C 504.41 137.70 506.22 138.66 505.44 140.38 C 472.94 140.85 440.42 140.39 407.92 140.89 L 407.27 142.01 C 404.05 138.95 400.39 136.22 396.10 134.89 C 388.97 132.67 381.36 133.01 374.00 133.47 C 368.89 133.76 364.80 137.14 360.13 138.76 C 358.51 138.83 357.05 139.47 355.72 140.33 C 333.17 140.90 310.61 140.70 288.06 140.64 C 285.49 140.61 282.54 142.93 280.29 140.71 C 273.44 135.28 267.19 129.15 260.89 123.11 C 258.88 121.06 255.60 119.74 255.25 116.55 Z"/>
<path fill="#db8c65" opacity="1.00" d=" M 331.00 150.00 C 336.57 149.18 342.22 149.84 347.81 149.27 C 347.85 152.54 348.36 155.80 349.47 158.88 C 345.89 160.71 343.39 164.09 339.69 165.70 C 337.12 166.85 334.64 168.22 332.51 170.06 C 329.27 166.43 325.68 163.13 322.68 159.28 C 320.99 157.58 319.25 154.56 316.42 155.57 C 312.04 157.97 308.25 161.33 304.62 164.72 C 302.78 165.11 302.65 162.46 301.47 161.57 C 297.95 157.97 294.32 154.48 290.94 150.76 C 304.25 149.99 317.65 150.41 331.00 150.00 Z"/>
<path fill="#db8c65" opacity="1.00" d=" M 412.98 149.64 C 425.32 149.17 437.71 149.10 450.03 150.10 C 471.35 150.22 492.68 149.86 513.99 150.13 C 516.60 152.03 517.91 155.43 520.17 157.80 C 524.08 162.04 526.58 167.32 530.40 171.64 C 531.28 172.42 531.62 173.53 531.87 174.65 C 518.91 174.95 505.95 174.20 492.98 174.47 C 474.68 174.37 456.37 175.07 438.07 174.83 C 439.29 168.87 440.56 162.64 438.28 156.76 C 430.91 152.53 422.13 152.66 414.06 150.80 C 413.79 150.51 413.25 149.93 412.98 149.64 Z"/>
<path fill="#db8c65" opacity="1.00" d=" M 138.43 150.23 C 144.94 149.80 151.47 150.33 157.98 150.04 C 166.68 149.25 175.43 149.64 184.16 149.55 C 193.02 150.61 201.99 149.90 210.91 150.18 C 210.82 151.57 210.72 152.96 210.61 154.36 C 206.78 159.60 201.85 163.87 197.90 169.02 C 197.24 169.50 196.60 171.19 195.61 170.53 C 191.99 166.41 187.30 163.41 183.76 159.21 C 182.64 158.12 181.70 156.55 180.03 156.31 C 174.82 163.24 168.85 169.76 162.15 175.20 C 148.46 175.15 134.78 175.21 121.10 175.17 C 126.60 166.68 132.91 158.71 138.43 150.23 Z"/>
<path fill="#db8c65" opacity="1.00" d=" M 104.73 202.67 C 107.98 196.06 111.84 189.77 115.69 183.49 C 127.50 183.85 139.33 183.55 151.15 183.73 C 153.97 183.90 152.25 186.95 151.13 188.13 C 145.36 195.00 139.06 201.41 132.98 208.01 C 132.04 209.33 130.29 208.77 128.94 208.88 C 120.00 208.79 111.06 208.76 102.12 208.72 C 102.22 206.43 103.84 204.68 104.73 202.67 Z"/>
<path fill="#db8c65" opacity="1.00" d=" M 408.30 191.21 C 415.69 190.04 423.74 189.39 429.75 184.41 C 443.81 183.69 457.91 184.22 471.98 184.10 C 488.00 184.18 504.02 184.00 520.03 184.04 C 526.03 183.27 532.10 183.62 538.13 183.65 C 541.39 191.94 547.17 198.99 550.72 207.15 C 550.77 207.56 550.87 208.38 550.92 208.79 C 521.61 208.59 492.29 208.60 462.97 208.98 C 459.43 209.01 455.69 209.79 452.26 208.73 C 446.35 204.85 441.63 199.44 436.64 194.51 C 435.19 193.95 434.17 195.44 433.18 196.21 C 427.93 201.25 422.47 206.16 418.00 211.93 C 415.45 209.49 412.98 206.97 410.31 204.66 C 407.55 202.21 405.66 198.51 402.07 197.20 C 403.96 195.07 404.97 191.36 408.30 191.21 Z"/>
</g>
<g id="#6f8cefff">
<path fill="#6f8cef" opacity="1.00" d=" M 240.59 136.65 C 243.39 134.04 245.34 130.70 248.04 128.00 C 256.18 136.86 265.88 144.00 274.61 152.24 C 283.13 159.57 290.85 167.72 298.79 175.65 C 291.57 174.46 284.23 176.01 277.01 174.86 C 272.04 174.82 267.04 174.66 262.10 175.34 C 243.46 175.32 224.79 175.65 206.16 175.57 C 207.99 172.38 210.97 170.10 213.31 167.30 C 217.29 162.37 222.19 158.28 226.12 153.30 C 231.36 148.11 235.12 141.63 240.59 136.65 Z"/>
<path fill="#6f8cef" opacity="1.00" d=" M 313.98 170.87 C 314.90 170.07 316.39 169.86 317.41 170.63 C 319.54 172.57 320.72 175.32 322.92 177.21 C 317.66 177.91 312.32 177.64 307.03 177.51 C 308.70 174.73 311.39 172.74 313.98 170.87 Z"/>
<path fill="#6f8cef" opacity="1.00" d=" M 177.19 176.19 C 178.26 174.94 179.27 173.25 181.09 173.09 C 186.42 178.55 191.88 184.00 197.97 188.61 C 202.75 183.62 209.93 185.92 215.98 184.76 C 232.33 184.23 248.71 184.23 265.07 184.19 C 281.17 183.11 297.33 183.84 313.45 183.79 C 299.37 189.10 284.19 191.48 270.79 198.59 C 265.98 201.10 262.04 204.87 257.58 207.89 C 221.13 209.62 184.58 207.64 148.11 208.82 C 147.99 207.03 149.44 205.84 150.53 204.64 C 156.26 198.93 161.44 192.71 167.08 186.93 C 170.41 183.30 174.25 180.16 177.19 176.19 Z"/>
<path fill="#6f8cef" opacity="1.00" d=" M 434.24 212.20 C 437.24 209.92 438.13 214.60 440.03 216.00 C 450.43 224.87 461.72 232.62 471.93 241.71 C 466.03 242.84 459.97 241.92 454.02 241.73 C 431.45 241.31 408.86 241.56 386.29 241.76 C 388.60 239.07 389.12 235.33 390.02 232.00 C 390.88 228.76 389.38 224.65 392.26 222.19 C 394.53 219.67 396.60 216.96 398.39 214.07 C 398.43 214.77 398.51 216.18 398.56 216.88 C 399.03 216.06 399.41 215.20 399.71 214.31 C 400.56 214.33 402.25 214.39 403.10 214.41 C 408.66 218.58 412.02 225.05 418.01 228.74 C 424.28 224.12 428.12 216.98 434.24 212.20 Z"/>
<path fill="#6f8cef" opacity="1.00" d=" M 188.02 217.81 C 203.65 217.32 219.30 218.04 234.93 217.57 C 238.68 217.81 242.72 216.82 246.26 218.31 C 239.15 225.41 232.96 233.40 227.79 241.98 L 227.50 240.22 C 227.21 240.59 226.63 241.34 226.35 241.71 C 212.57 242.42 198.75 241.35 184.98 242.26 C 162.85 242.85 140.71 241.89 118.59 242.31 C 118.01 240.41 119.85 239.26 120.88 238.00 C 126.56 231.30 132.75 225.01 137.58 217.64 C 154.38 218.72 171.21 217.66 188.02 217.81 Z"/>
<path fill="#6f8cef" opacity="1.00" d=" M 88.02 241.86 C 91.04 233.73 94.01 225.55 97.71 217.70 C 106.37 217.84 115.05 218.04 123.69 217.32 C 123.98 221.99 118.74 224.02 116.07 227.11 C 112.57 231.61 107.67 234.78 104.39 239.49 C 103.17 241.77 100.44 242.39 98.04 242.22 C 94.70 242.06 91.32 242.52 88.02 241.86 Z"/>
<path fill="#6f8cef" opacity="1.00" d=" M 463.45 217.57 C 480.95 217.28 498.48 218.57 516.01 218.30 C 529.05 218.08 542.16 218.93 555.15 217.63 C 556.99 219.28 556.92 222.07 558.02 224.18 C 560.02 230.43 563.32 236.13 565.65 242.24 C 554.45 241.97 543.24 242.54 532.07 241.85 C 518.71 242.37 505.28 242.29 491.94 242.02 C 483.59 235.88 475.51 229.21 467.55 222.53 C 466.12 220.95 463.67 219.92 463.45 217.57 Z"/>
<path fill="#6f8cef" opacity="1.00" d=" M 364.61 266.58 C 370.42 262.01 374.90 255.99 379.08 249.95 C 378.69 253.07 381.68 250.62 383.13 250.69 C 415.41 250.30 447.69 250.66 479.97 250.25 C 482.41 250.50 485.68 249.19 487.47 251.44 C 494.44 259.46 504.24 264.54 510.80 272.95 C 510.75 273.32 510.63 274.05 510.58 274.42 C 486.05 274.04 461.52 274.65 436.99 274.54 C 415.99 274.58 394.99 274.53 373.99 274.58 C 366.57 274.55 359.14 274.85 351.72 274.42 C 355.65 271.20 360.06 268.79 364.61 266.58 Z"/>
<path fill="#6f8cef" opacity="1.00" d=" M 79.75 274.86 C 81.40 266.71 83.70 258.67 85.77 250.63 C 98.47 251.60 111.24 250.89 123.97 251.16 C 130.11 250.62 136.29 250.73 142.45 250.49 L 143.32 251.69 C 140.83 258.92 139.72 266.95 142.03 274.39 C 121.29 275.27 100.51 274.38 79.75 274.86 Z"/>
<path fill="#6f8cef" opacity="1.00" d=" M 159.56 250.76 C 163.73 250.07 167.82 251.37 171.98 251.11 C 188.93 250.78 205.93 251.97 222.83 250.30 C 222.96 250.95 223.24 252.25 223.38 252.90 C 221.32 258.47 221.02 264.46 220.24 270.30 C 214.27 273.11 207.45 273.00 201.00 272.71 C 191.75 272.43 183.54 267.64 175.55 263.49 C 169.98 259.58 164.28 255.69 159.56 250.76 Z"/>
<path fill="#6f8cef" opacity="1.00" d=" M 505.16 250.79 C 513.43 250.77 521.73 250.45 529.99 251.10 C 542.72 251.13 555.46 251.06 568.19 251.24 C 568.95 259.19 572.34 266.60 573.66 274.45 C 558.05 274.69 542.42 275.20 526.83 274.38 C 524.09 268.95 519.05 265.33 515.10 260.87 C 511.97 257.32 507.94 254.65 505.16 250.79 Z"/>
<path fill="#6f8cef" opacity="1.00" d=" M 145.33 282.29 C 145.34 289.15 151.64 293.65 157.66 295.31 C 160.38 295.63 160.38 298.65 161.38 300.60 C 162.76 304.04 166.24 305.85 169.27 307.62 C 167.69 308.68 165.71 308.20 163.94 308.35 C 134.41 308.51 104.87 308.28 75.34 308.61 C 75.34 300.14 76.49 291.76 77.46 283.37 C 90.65 283.91 103.86 283.36 117.06 283.60 C 126.26 283.97 135.46 283.36 144.66 283.53 C 144.83 283.22 145.16 282.60 145.33 282.29 Z"/>
<path fill="#6f8cef" opacity="1.00" d=" M 355.99 283.56 C 410.65 283.49 465.31 283.47 519.98 283.41 C 531.32 283.72 542.69 283.29 554.02 284.16 C 561.40 283.66 568.81 283.53 576.21 283.51 C 576.26 291.89 577.97 300.12 578.57 308.46 C 560.06 308.17 541.54 308.52 523.03 308.40 C 500.27 308.47 477.51 307.21 454.76 308.28 C 418.85 308.43 382.94 308.28 347.03 308.38 C 344.60 308.31 342.11 308.84 339.75 308.12 C 341.92 300.33 342.97 292.26 345.31 284.52 C 348.90 284.53 352.39 283.42 355.99 283.56 Z"/>
<path fill="#6f8cef" opacity="1.00" d=" M 75.19 317.30 C 108.81 317.81 142.43 317.11 176.05 317.52 C 186.40 317.70 196.72 316.91 207.06 316.69 C 222.50 317.85 238.03 316.70 253.46 317.48 C 252.46 321.57 251.12 326.42 253.87 330.13 C 257.20 335.72 264.38 336.49 268.65 341.09 C 264.45 341.69 260.20 341.48 255.97 341.64 C 195.52 341.40 135.06 341.83 74.61 341.43 C 74.70 333.38 75.30 325.35 75.19 317.30 Z"/>
<path fill="#6f8cef" opacity="1.00" d=" M 296.13 316.93 C 296.27 317.55 296.54 318.77 296.67 319.39 C 300.00 319.23 303.33 319.35 306.66 319.36 C 307.01 320.68 307.34 322.02 307.64 323.36 C 303.46 324.04 299.30 322.64 295.30 321.58 C 295.11 319.96 295.47 318.40 296.13 316.93 Z"/>
<path fill="#6f8cef" opacity="1.00" d=" M 337.73 317.39 C 418.05 317.18 498.36 317.61 578.67 317.30 C 578.63 325.40 578.83 333.49 578.69 341.58 C 507.12 341.86 435.55 341.36 363.99 341.40 C 358.25 341.52 352.50 340.73 346.78 341.40 C 346.84 341.10 346.97 340.50 347.04 340.20 C 350.10 339.67 353.22 338.86 356.31 339.76 C 357.71 339.22 353.73 338.24 353.98 339.00 C 351.71 339.10 349.45 339.13 347.18 339.16 C 347.65 332.68 343.18 326.65 337.08 324.71 C 337.08 322.25 337.21 319.79 337.73 317.39 Z"/>
</g>
<g id="#fbf7e2ff">
<path fill="#fbf7e2" opacity="1.00" d=" M 360.13 138.76 C 364.80 137.14 368.89 133.76 374.00 133.47 C 381.36 133.01 388.97 132.67 396.10 134.89 C 400.39 136.22 404.05 138.95 407.27 142.01 C 409.76 144.05 411.54 146.79 412.98 149.64 C 413.25 149.93 413.79 150.51 414.06 150.80 C 422.13 152.66 430.91 152.53 438.28 156.76 C 440.56 162.64 439.29 168.87 438.07 174.83 C 435.54 178.22 433.53 182.19 429.75 184.41 C 423.74 189.39 415.69 190.04 408.30 191.21 C 404.97 191.36 403.96 195.07 402.07 197.20 C 399.27 202.35 398.58 208.32 398.39 214.07 C 396.60 216.96 394.53 219.67 392.26 222.19 C 389.38 224.65 390.88 228.76 390.02 232.00 C 389.12 235.33 388.60 239.07 386.29 241.76 C 382.99 243.62 381.44 247.18 379.08 249.95 C 374.90 255.99 370.42 262.01 364.61 266.58 C 360.06 268.79 355.65 271.20 351.72 274.42 C 350.43 275.08 348.97 275.31 347.57 275.61 C 346.40 278.47 346.43 281.64 345.31 284.52 C 342.97 292.26 341.92 300.33 339.75 308.12 C 338.92 311.18 338.36 314.29 337.73 317.39 C 337.21 319.79 337.08 322.25 337.08 324.71 C 343.18 326.65 347.65 332.68 347.18 339.16 C 349.45 339.13 351.71 339.10 353.98 339.00 C 353.73 338.24 357.71 339.22 356.31 339.76 C 353.22 338.86 350.10 339.67 347.04 340.20 C 346.97 340.50 346.84 341.10 346.78 341.40 C 346.67 341.98 346.46 343.15 346.36 343.74 C 346.06 344.14 345.45 344.95 345.15 345.36 C 328.79 346.28 312.39 345.16 296.02 345.87 C 289.97 345.93 283.86 346.58 277.85 345.62 C 274.30 345.20 271.92 342.21 268.65 341.09 C 264.38 336.49 257.20 335.72 253.87 330.13 C 251.12 326.42 252.46 321.57 253.46 317.48 L 253.63 316.80 C 254.29 316.20 254.94 315.59 255.59 314.98 C 255.35 314.64 254.88 313.96 254.65 313.61 C 250.18 313.12 245.85 311.51 242.13 308.97 C 240.02 307.54 237.00 308.35 235.23 306.32 C 226.96 307.67 220.89 315.88 212.02 315.14 C 209.83 315.11 208.36 313.60 207.10 312.04 C 202.71 312.56 198.83 316.22 194.10 315.35 C 189.82 314.28 184.85 312.71 182.64 308.56 C 178.23 308.36 173.52 309.22 169.27 307.62 C 166.24 305.85 162.76 304.04 161.38 300.60 C 160.38 298.65 160.38 295.63 157.66 295.31 C 151.64 293.65 145.34 289.15 145.33 282.29 C 143.93 279.79 142.68 277.19 142.03 274.39 C 139.72 266.95 140.83 258.92 143.32 251.69 L 143.56 250.78 C 145.37 249.67 146.84 247.73 149.09 247.56 C 152.88 246.96 156.45 248.84 159.56 250.76 C 164.28 255.69 169.98 259.58 175.55 263.49 C 183.54 267.64 191.75 272.43 201.00 272.71 C 207.45 273.00 214.27 273.11 220.24 270.30 C 221.02 264.46 221.32 258.47 223.38 252.90 C 223.89 248.90 226.65 245.75 227.79 241.98 C 232.96 233.40 239.15 225.41 246.26 218.31 L 246.75 217.78 C 250.73 215.00 253.55 210.71 257.58 207.89 C 262.04 204.87 265.98 201.10 270.79 198.59 C 284.19 191.48 299.37 189.10 313.45 183.79 C 319.86 181.62 325.81 178.32 331.41 174.56 C 332.95 173.60 332.67 171.59 332.51 170.06 C 334.64 168.22 337.12 166.85 339.69 165.70 C 343.39 164.09 345.89 160.71 349.47 158.88 C 348.36 155.80 347.85 152.54 347.81 149.27 C 350.33 144.41 355.09 140.74 360.13 138.76 M 363.49 145.71 C 360.40 147.27 356.66 148.47 355.25 151.97 C 356.39 154.97 359.51 156.33 362.01 157.99 C 365.52 163.18 369.12 169.08 375.11 171.65 C 378.75 170.24 380.91 166.56 381.50 162.85 C 382.48 157.72 382.63 152.49 383.34 147.32 C 384.45 147.73 386.37 147.41 386.54 149.04 C 387.51 153.94 387.21 159.00 386.94 163.97 C 386.62 169.41 384.21 175.53 378.80 177.70 C 375.83 179.45 372.54 177.51 369.92 176.04 C 364.42 172.72 361.23 166.94 358.29 161.45 C 357.59 159.78 355.88 160.97 355.17 161.92 C 352.21 165.00 349.66 168.50 346.17 171.03 C 344.06 173.24 340.86 172.98 338.11 173.47 C 339.47 175.78 341.37 178.04 343.97 178.96 C 343.47 180.55 341.22 180.09 339.99 180.71 C 333.63 181.79 329.03 186.77 322.98 188.62 C 312.48 193.63 301.00 195.89 289.87 199.04 C 283.73 200.71 278.17 203.88 272.38 206.43 C 261.90 213.24 252.70 221.99 244.97 231.79 C 237.50 240.84 230.30 251.06 229.29 263.13 C 228.19 266.77 229.20 270.85 227.39 274.26 C 222.94 278.16 216.89 279.75 211.17 280.60 C 194.52 282.22 177.80 275.55 165.44 264.59 C 160.65 261.33 156.13 257.37 150.67 255.31 C 150.03 257.85 149.40 260.40 149.47 263.05 C 149.54 266.55 148.78 270.57 151.24 273.49 C 153.48 276.59 156.22 279.57 159.78 281.14 C 157.23 281.23 154.53 283.43 155.44 286.17 C 160.05 288.93 165.42 289.93 170.69 290.54 C 171.02 293.24 167.19 294.13 166.63 296.80 C 173.34 301.42 182.23 300.71 189.72 298.51 C 190.11 300.93 188.03 302.84 188.41 305.29 C 192.12 306.89 196.45 308.12 200.33 306.30 C 204.02 304.37 207.50 302.04 211.28 300.27 C 211.31 302.17 211.05 304.23 211.95 305.99 C 213.75 307.51 216.26 306.10 218.01 305.14 C 223.59 301.47 229.27 297.74 233.65 292.62 C 234.08 292.52 234.94 292.32 235.38 292.22 C 235.43 292.92 235.54 294.32 235.60 295.02 C 240.56 298.99 245.98 302.52 252.09 304.43 C 257.07 306.59 262.59 305.64 267.83 306.30 C 267.56 313.65 260.41 318.25 259.44 325.29 C 261.39 328.46 265.00 329.86 268.06 331.70 C 272.25 334.38 276.86 336.26 281.17 338.72 C 284.14 340.52 287.76 339.53 291.04 339.79 C 297.16 339.55 303.33 340.15 309.41 339.28 C 310.50 335.71 308.50 331.58 304.90 330.48 C 300.03 329.39 294.51 330.53 290.20 327.48 C 287.31 325.37 283.67 323.62 282.47 319.99 C 287.26 313.28 294.44 308.94 300.81 303.92 C 308.20 298.08 311.56 288.01 309.95 278.84 C 308.71 271.85 303.86 265.56 297.32 262.76 C 288.92 259.06 279.14 258.66 270.46 261.64 C 270.17 260.36 270.33 259.08 270.59 257.82 C 276.37 252.78 284.75 251.75 291.94 253.94 C 301.21 256.64 310.65 261.88 314.98 270.92 C 317.32 277.05 316.82 283.80 316.22 290.20 C 314.16 298.65 315.11 307.37 314.20 315.95 C 313.68 322.50 314.94 329.19 317.98 335.04 C 319.38 337.07 321.23 339.24 323.81 339.66 C 328.22 340.41 332.72 340.02 337.17 340.11 C 340.05 339.51 339.70 336.04 339.41 333.82 C 337.09 332.12 334.35 331.22 331.78 330.02 C 328.79 328.63 328.59 324.80 328.95 321.96 C 330.83 310.95 333.10 300.01 335.73 289.16 C 336.93 283.58 337.93 277.92 339.80 272.51 C 341.88 268.57 346.58 267.47 349.58 264.46 C 351.38 262.91 352.62 260.84 354.21 259.09 C 354.87 258.11 355.53 257.12 356.17 256.13 C 357.54 257.81 356.41 261.60 359.11 261.63 C 364.31 258.25 367.17 252.06 368.20 246.07 C 368.61 244.40 368.31 242.28 369.95 241.23 C 371.20 242.97 371.58 246.12 374.30 245.94 C 375.53 242.91 376.89 239.84 376.79 236.50 C 378.94 237.62 380.72 236.17 381.34 234.13 C 382.41 227.54 379.97 221.04 380.59 214.45 C 383.24 215.28 384.27 217.97 386.06 219.81 C 387.16 217.52 388.79 215.43 389.37 212.91 C 390.12 209.31 389.82 205.60 390.42 201.98 C 392.66 199.95 393.11 196.79 394.17 194.09 C 395.58 189.34 399.62 185.33 404.53 184.33 C 411.01 182.75 418.03 182.47 423.89 178.98 C 429.88 175.23 431.67 167.75 432.06 161.15 C 425.06 160.09 417.88 159.66 411.13 157.43 C 406.20 155.92 405.62 149.86 401.84 146.97 C 395.76 142.13 387.66 140.43 380.02 140.75 C 374.10 140.53 368.73 143.33 363.49 145.71 M 305.91 309.54 C 302.94 312.38 299.86 315.16 296.40 317.40 C 300.03 317.62 303.67 317.26 307.30 317.31 C 307.53 314.59 307.91 311.88 307.85 309.15 C 307.37 309.25 306.40 309.44 305.91 309.54 M 296.13 316.93 C 295.47 318.40 295.11 319.96 295.30 321.58 C 299.30 322.64 303.46 324.04 307.64 323.36 C 307.34 322.02 307.01 320.68 306.66 319.36 C 303.33 319.35 300.00 319.23 296.67 319.39 C 296.54 318.77 296.27 317.55 296.13 316.93 Z"/>
</g>
</svg>