<?xml version="1.0" encoding="UTF-8"?>
<svg xmlns="http://www.w3.org/2000/svg" xmlns:xlink="http://www.w3.org/1999/xlink" width="0px" height="150px" viewBox="0 0 126 72" version="1.1">
<g id="surface1">
<path style=" stroke:none;fill-rule:nonzero;fill:rgb(5.882353%,9.019608%,16.470589%);fill-opacity:1;" d="M 57.8125 62.757812 C 57.933594 62.734375 58.179688 62.6875 58.296875 62.660156 C 58.3125 63.347656 58.21875 64.03125 58.160156 64.714844 C 57.253906 64.703125 56.34375 64.792969 55.4375 64.738281 C 56.300781 64.171875 57.070312 63.472656 57.8125 62.757812 Z M 57.8125 62.757812 "/>
<path style=" stroke:none;fill-rule:nonzero;fill:rgb(85.882354%,54.901963%,39.607844%);fill-opacity:1;" d="M 55.253906 0.609375 C 59.066406 -0.144531 62.976562 0.0390625 66.84375 0.0820312 C 69.59375 0.375 72.371094 0.527344 75.058594 1.238281 C 77.453125 1.863281 79.933594 2.226562 82.230469 3.191406 C 78.601562 3.363281 74.960938 3.183594 71.324219 3.210938 C 64.160156 3.179688 56.992188 3.1875 49.824219 3.222656 C 48.144531 3.1875 46.453125 3.285156 44.777344 3.128906 C 48.140625 1.828125 51.695312 1.117188 55.253906 0.609375 Z M 55.253906 0.609375 "/>
<path style=" stroke:none;fill-rule:nonzero;fill:rgb(85.882354%,54.901963%,39.607844%);fill-opacity:1;" d="M 39.4375 5.546875 C 41.484375 5.414062 43.539062 5.640625 45.589844 5.589844 C 54.835938 5.582031 64.082031 5.566406 73.324219 5.597656 C 77.160156 5.699219 80.996094 5.601562 84.828125 5.511719 C 85.964844 5.546875 87.171875 5.351562 88.226562 5.894531 C 89.507812 6.492188 90.753906 7.160156 92.046875 7.742188 C 92.953125 8.140625 93.707031 8.816406 94.628906 9.1875 C 95.941406 9.757812 96.941406 10.84375 98.238281 11.441406 C 98.445312 11.835938 97.8125 11.839844 97.582031 11.875 C 96.164062 11.921875 94.734375 11.941406 93.324219 11.773438 C 77.414062 11.765625 61.5 11.6875 45.585938 11.796875 C 43.09375 11.933594 40.582031 11.980469 38.09375 11.773438 C 34.699219 11.710938 31.3125 12.015625 27.914062 11.9375 C 27.921875 11.859375 27.933594 11.710938 27.9375 11.632812 C 29.136719 10.933594 30.210938 10.03125 31.445312 9.386719 C 34.074219 8.035156 36.632812 6.5 39.4375 5.546875 Z M 39.4375 5.546875 "/>
<path style=" stroke:none;fill-rule:nonzero;fill:rgb(85.882354%,54.901963%,39.607844%);fill-opacity:1;" d="M 39.082031 14.136719 C 40.078125 14.183594 41.070312 14.175781 42.0625 14.085938 C 42.050781 14.25 42.023438 14.574219 42.011719 14.734375 C 40.386719 16.035156 39.285156 17.851562 37.738281 19.238281 C 37.238281 19.671875 36.890625 20.457031 36.109375 20.296875 C 32.9375 20.121094 29.769531 20.433594 26.597656 20.308594 C 23.878906 20.234375 21.15625 20.238281 18.4375 20.25 C 18.265625 19.691406 18.9375 19.535156 19.226562 19.195312 C 20.671875 17.800781 22.085938 16.363281 23.675781 15.128906 C 24.039062 14.882812 24.261719 14.496094 24.5 14.144531 C 29.359375 14.214844 34.222656 14.15625 39.082031 14.136719 Z M 39.082031 14.136719 "/>
<path style=" stroke:none;fill-rule:nonzero;fill:rgb(85.882354%,54.901963%,39.607844%);fill-opacity:1;" d="M 45.152344 14.191406 C 63.621094 14.085938 82.089844 14.265625 100.558594 14.097656 C 100.964844 14.128906 101.457031 14.015625 101.789062 14.320312 C 103.648438 15.886719 105.453125 17.527344 107.191406 19.238281 C 107.421875 19.511719 107.875 19.753906 107.679688 20.1875 C 99.554688 20.304688 91.429688 20.191406 83.308594 20.316406 L 83.144531 20.597656 C 82.339844 19.828125 81.425781 19.140625 80.351562 18.804688 C 78.570312 18.246094 76.667969 18.332031 74.828125 18.449219 C 73.550781 18.523438 72.53125 19.371094 71.363281 19.78125 C 70.957031 19.796875 70.59375 19.957031 70.261719 20.175781 C 64.625 20.320312 58.988281 20.269531 53.351562 20.253906 C 52.710938 20.246094 51.972656 20.828125 51.410156 20.269531 C 49.699219 18.90625 48.136719 17.363281 46.5625 15.839844 C 46.058594 15.324219 45.238281 14.992188 45.152344 14.191406 Z M 45.152344 14.191406 "/>
<path style=" stroke:none;fill-rule:nonzero;fill:rgb(85.882354%,54.901963%,39.607844%);fill-opacity:1;" d="M 64.082031 22.609375 C 65.476562 22.402344 66.886719 22.570312 68.285156 22.425781 C 68.292969 23.25 68.421875 24.070312 68.699219 24.84375 C 67.804688 25.304688 67.179688 26.15625 66.253906 26.558594 C 65.613281 26.847656 64.992188 27.195312 64.460938 27.65625 C 63.652344 26.742188 62.753906 25.914062 62.003906 24.945312 C 61.582031 24.515625 61.148438 23.757812 60.441406 24.011719 C 59.34375 24.613281 58.398438 25.460938 57.492188 26.3125 C 57.03125 26.410156 57 25.746094 56.703125 25.519531 C 55.824219 24.613281 54.917969 23.738281 54.070312 22.800781 C 57.398438 22.605469 60.746094 22.710938 64.082031 22.609375 Z M 64.082031 22.609375 "/>
<path style=" stroke:none;fill-rule:nonzero;fill:rgb(85.882354%,54.901963%,39.607844%);fill-opacity:1;" d="M 84.570312 22.519531 C 87.65625 22.398438 90.75 22.382812 93.832031 22.632812 C 99.160156 22.664062 104.488281 22.574219 109.816406 22.640625 C 110.46875 23.121094 110.796875 23.976562 111.359375 24.570312 C 112.335938 25.640625 112.960938 26.96875 113.917969 28.054688 C 114.136719 28.25 114.222656 28.53125 114.285156 28.8125 C 111.046875 28.886719 107.804688 28.699219 104.566406 28.765625 C 99.992188 28.742188 95.414062 28.917969 90.84375 28.859375 C 91.148438 27.359375 91.464844 25.789062 90.894531 24.308594 C 89.050781 23.246094 86.859375 23.277344 84.839844 22.808594 C 84.773438 22.738281 84.640625 22.589844 84.570312 22.519531 Z M 84.570312 22.519531 "/>
<path style=" stroke:none;fill-rule:nonzero;fill:rgb(85.882354%,54.901963%,39.607844%);fill-opacity:1;" d="M 15.957031 22.667969 C 17.585938 22.558594 19.214844 22.691406 20.84375 22.617188 C 23.015625 22.421875 25.203125 22.519531 27.386719 22.496094 C 29.601562 22.761719 31.839844 22.582031 34.070312 22.652344 C 34.046875 23.003906 34.023438 23.355469 33.996094 23.707031 C 33.039062 25.023438 31.808594 26.097656 30.820312 27.394531 C 30.65625 27.515625 30.496094 27.941406 30.246094 27.777344 C 29.34375 26.738281 28.171875 25.984375 27.285156 24.925781 C 27.007812 24.652344 26.769531 24.257812 26.355469 24.195312 C 25.050781 25.941406 23.558594 27.582031 21.886719 28.949219 C 18.464844 28.9375 15.046875 28.953125 11.625 28.941406 C 13 26.808594 14.578125 24.800781 15.957031 22.667969 Z M 15.957031 22.667969 "/>
<path style=" stroke:none;fill-rule:nonzero;fill:rgb(85.882354%,54.901963%,39.607844%);fill-opacity:1;" d="M 7.535156 35.863281 C 8.347656 34.199219 9.3125 32.617188 10.273438 31.039062 C 13.226562 31.128906 16.183594 31.050781 19.136719 31.097656 C 19.839844 31.140625 19.410156 31.90625 19.132812 32.203125 C 17.6875 33.933594 16.113281 35.546875 14.59375 37.207031 C 14.359375 37.539062 13.921875 37.398438 13.585938 37.425781 C 11.351562 37.402344 9.117188 37.398438 6.882812 37.386719 C 6.90625 36.808594 7.3125 36.371094 7.535156 35.863281 Z M 7.535156 35.863281 "/>
<path style=" stroke:none;fill-rule:nonzero;fill:rgb(85.882354%,54.901963%,39.607844%);fill-opacity:1;" d="M 83.402344 32.980469 C 85.25 32.6875 87.261719 32.523438 88.761719 31.269531 C 92.277344 31.085938 95.800781 31.222656 99.316406 31.191406 C 103.320312 31.210938 107.324219 31.164062 111.324219 31.175781 C 112.824219 30.980469 114.339844 31.070312 115.847656 31.078125 C 116.664062 33.164062 118.109375 34.9375 118.996094 36.992188 C 119.007812 37.09375 119.03125 37.300781 119.042969 37.402344 C 111.71875 37.355469 104.390625 37.355469 97.066406 37.453125 C 96.179688 37.460938 95.246094 37.65625 94.386719 37.390625 C 92.910156 36.414062 91.730469 35.050781 90.484375 33.808594 C 90.121094 33.667969 89.867188 34.042969 89.621094 34.238281 C 88.308594 35.507812 86.941406 36.742188 85.824219 38.195312 C 85.1875 37.582031 84.570312 36.945312 83.902344 36.363281 C 83.214844 35.75 82.742188 34.816406 81.84375 34.488281 C 82.316406 33.953125 82.570312 33.019531 83.402344 32.980469 Z M 83.402344 32.980469 "/>
<path style=" stroke:none;fill-rule:nonzero;fill:rgb(43.529412%,54.901963%,93.725491%);fill-opacity:1;" d="M 41.488281 19.25 C 42.1875 18.59375 42.675781 17.75 43.351562 17.074219 C 45.382812 19.300781 47.808594 21.097656 49.992188 23.171875 C 52.121094 25.015625 54.050781 27.070312 56.035156 29.0625 C 54.230469 28.765625 52.394531 29.15625 50.589844 28.867188 C 49.347656 28.855469 48.097656 28.816406 46.863281 28.984375 C 42.207031 28.980469 37.539062 29.0625 32.882812 29.042969 C 33.339844 28.242188 34.085938 27.667969 34.671875 26.960938 C 35.664062 25.722656 36.890625 24.691406 37.871094 23.441406 C 39.183594 22.132812 40.121094 20.503906 41.488281 19.25 Z M 41.488281 19.25 "/>
<path style=" stroke:none;fill-rule:nonzero;fill:rgb(43.529412%,54.901963%,93.725491%);fill-opacity:1;" d="M 59.828125 27.859375 C 60.058594 27.660156 60.433594 27.605469 60.6875 27.800781 C 61.21875 28.289062 61.515625 28.980469 62.0625 29.457031 C 60.75 29.632812 59.414062 29.566406 58.09375 29.53125 C 58.511719 28.832031 59.183594 28.332031 59.828125 27.859375 Z M 59.828125 27.859375 "/>
<path style=" stroke:none;fill-rule:nonzero;fill:rgb(43.529412%,54.901963%,93.725491%);fill-opacity:1;" d="M 25.644531 29.199219 C 25.910156 28.886719 26.164062 28.460938 26.617188 28.417969 C 27.949219 29.792969 29.316406 31.164062 30.835938 32.324219 C 32.03125 31.070312 33.824219 31.648438 35.339844 31.355469 C 39.425781 31.222656 43.519531 31.222656 47.605469 31.214844 C 51.628906 30.941406 55.667969 31.125 59.699219 31.113281 C 56.179688 32.449219 52.386719 33.046875 49.035156 34.835938 C 47.832031 35.46875 46.847656 36.417969 45.734375 37.179688 C 36.625 37.613281 27.492188 37.113281 18.375 37.410156 C 18.347656 36.960938 18.707031 36.660156 18.980469 36.359375 C 20.414062 34.921875 21.707031 33.359375 23.117188 31.902344 C 23.949219 30.988281 24.910156 30.199219 25.644531 29.199219 Z M 25.644531 29.199219 "/>
<path style=" stroke:none;fill-rule:nonzero;fill:rgb(43.529412%,54.901963%,93.725491%);fill-opacity:1;" d="M 89.882812 38.261719 C 90.632812 37.6875 90.855469 38.867188 91.332031 39.21875 C 93.929688 41.449219 96.753906 43.402344 99.304688 45.6875 C 97.828125 45.972656 96.316406 45.742188 94.828125 45.695312 C 89.1875 45.589844 83.542969 45.652344 77.902344 45.703125 C 78.480469 45.023438 78.609375 44.082031 78.832031 43.246094 C 79.046875 42.429688 78.671875 41.394531 79.394531 40.777344 C 79.960938 40.140625 80.476562 39.460938 80.925781 38.734375 C 80.933594 38.910156 80.957031 39.265625 80.96875 39.441406 C 81.085938 39.234375 81.179688 39.015625 81.253906 38.792969 C 81.46875 38.796875 81.890625 38.8125 82.101562 38.820312 C 83.492188 39.867188 84.332031 41.496094 85.828125 42.425781 C 87.394531 41.261719 88.355469 39.464844 89.882812 38.261719 Z M 89.882812 38.261719 "/>
<path style=" stroke:none;fill-rule:nonzero;fill:rgb(43.529412%,54.901963%,93.725491%);fill-opacity:1;" d="M 28.351562 39.675781 C 32.257812 39.550781 36.167969 39.730469 40.074219 39.613281 C 41.011719 39.675781 42.019531 39.425781 42.90625 39.800781 C 41.128906 41.585938 39.582031 43.597656 38.289062 45.757812 L 38.21875 45.3125 C 38.144531 45.40625 38 45.597656 37.929688 45.6875 C 34.484375 45.867188 31.03125 45.597656 27.589844 45.828125 C 22.058594 45.976562 16.527344 45.734375 11 45.839844 C 10.855469 45.363281 11.3125 45.074219 11.570312 44.753906 C 12.992188 43.070312 14.539062 41.484375 15.746094 39.632812 C 19.941406 39.902344 24.148438 39.636719 28.351562 39.675781 Z M 28.351562 39.675781 "/>
<path style=" stroke:none;fill-rule:nonzero;fill:rgb(43.529412%,54.901963%,93.725491%);fill-opacity:1;" d="M 3.359375 45.726562 C 4.113281 43.679688 4.855469 41.621094 5.78125 39.648438 C 7.945312 39.683594 10.113281 39.730469 12.273438 39.550781 C 12.347656 40.726562 11.035156 41.238281 10.367188 42.015625 C 9.496094 43.148438 8.269531 43.945312 7.449219 45.128906 C 7.144531 45.703125 6.460938 45.859375 5.863281 45.816406 C 5.027344 45.777344 4.183594 45.894531 3.359375 45.726562 Z M 3.359375 45.726562 "/>
<path style=" stroke:none;fill-rule:nonzero;fill:rgb(43.529412%,54.901963%,93.725491%);fill-opacity:1;" d="M 97.183594 39.613281 C 101.558594 39.539062 105.9375 39.867188 110.320312 39.796875 C 113.578125 39.742188 116.855469 39.957031 120.101562 39.628906 C 120.5625 40.042969 120.542969 40.746094 120.820312 41.277344 C 121.320312 42.851562 122.144531 44.285156 122.726562 45.824219 C 119.925781 45.753906 117.125 45.898438 114.332031 45.722656 C 110.996094 45.855469 107.640625 45.835938 104.304688 45.765625 C 102.21875 44.222656 100.199219 42.542969 98.210938 40.863281 C 97.851562 40.464844 97.238281 40.207031 97.183594 39.613281 Z M 97.183594 39.613281 "/>
<path style=" stroke:none;fill-rule:nonzero;fill:rgb(43.529412%,54.901963%,93.725491%);fill-opacity:1;" d="M 72.484375 51.949219 C 73.933594 50.796875 75.054688 49.28125 76.097656 47.761719 C 76 48.546875 76.75 47.929688 77.113281 47.949219 C 85.179688 47.851562 93.246094 47.941406 101.3125 47.839844 C 101.921875 47.902344 102.742188 47.570312 103.1875 48.136719 C 104.929688 50.15625 107.378906 51.433594 109.019531 53.550781 C 109.003906 53.644531 108.976562 53.828125 108.964844 53.921875 C 102.832031 53.824219 96.703125 53.980469 90.570312 53.949219 C 85.324219 53.960938 80.074219 53.949219 74.828125 53.960938 C 72.972656 53.953125 71.117188 54.027344 69.261719 53.921875 C 70.242188 53.109375 71.347656 52.503906 72.484375 51.949219 Z M 72.484375 51.949219 "/>
<path style=" stroke:none;fill-rule:nonzero;fill:rgb(43.529412%,54.901963%,93.725491%);fill-opacity:1;" d="M 1.292969 54.03125 C 1.703125 51.980469 2.277344 49.957031 2.796875 47.933594 C 5.96875 48.179688 9.160156 48 12.34375 48.066406 C 13.878906 47.929688 15.421875 47.960938 16.960938 47.898438 L 17.179688 48.199219 C 16.558594 50.019531 16.28125 52.042969 16.855469 53.914062 C 11.671875 54.136719 6.480469 53.910156 1.292969 54.03125 Z M 1.292969 54.03125 "/>
<path style=" stroke:none;fill-rule:nonzero;fill:rgb(43.529412%,54.901963%,93.725491%);fill-opacity:1;" d="M 21.238281 47.964844 C 22.28125 47.792969 23.300781 48.121094 24.339844 48.054688 C 28.578125 47.972656 32.828125 48.269531 37.050781 47.851562 C 37.082031 48.015625 37.152344 48.339844 37.1875 48.503906 C 36.671875 49.90625 36.597656 51.414062 36.402344 52.882812 C 34.910156 53.589844 33.207031 53.5625 31.59375 53.492188 C 29.28125 53.421875 27.230469 52.214844 25.234375 51.171875 C 23.84375 50.1875 22.417969 49.207031 21.238281 47.964844 Z M 21.238281 47.964844 "/>
<path style=" stroke:none;fill-rule:nonzero;fill:rgb(43.529412%,54.901963%,93.725491%);fill-opacity:1;" d="M 107.609375 47.972656 C 109.675781 47.96875 111.75 47.886719 113.8125 48.050781 C 116.996094 48.058594 120.179688 48.042969 123.359375 48.085938 C 123.550781 50.089844 124.398438 51.953125 124.726562 53.929688 C 120.828125 53.988281 116.921875 54.117188 113.023438 53.910156 C 112.339844 52.542969 111.078125 51.632812 110.09375 50.511719 C 109.3125 49.617188 108.304688 48.945312 107.609375 47.972656 Z M 107.609375 47.972656 "/>
<path style=" stroke:none;fill-rule:nonzero;fill:rgb(43.529412%,54.901963%,93.725491%);fill-opacity:1;" d="M 17.679688 55.902344 C 17.683594 57.628906 19.257812 58.761719 20.761719 59.179688 C 21.441406 59.257812 21.441406 60.019531 21.691406 60.507812 C 22.039062 61.375 22.90625 61.832031 23.664062 62.277344 C 23.269531 62.542969 22.773438 62.421875 22.332031 62.460938 C 14.953125 62.5 7.570312 62.441406 0.191406 62.523438 C 0.191406 60.394531 0.476562 58.285156 0.71875 56.171875 C 4.015625 56.308594 7.316406 56.171875 10.617188 56.230469 C 12.914062 56.324219 15.214844 56.171875 17.515625 56.214844 C 17.554688 56.136719 17.640625 55.980469 17.679688 55.902344 Z M 17.679688 55.902344 "/>
<path style=" stroke:none;fill-rule:nonzero;fill:rgb(43.529412%,54.901963%,93.725491%);fill-opacity:1;" d="M 70.328125 56.222656 C 83.988281 56.203125 97.648438 56.199219 111.3125 56.183594 C 114.148438 56.261719 116.988281 56.152344 119.820312 56.371094 C 121.664062 56.246094 123.515625 56.214844 125.363281 56.207031 C 125.378906 58.316406 125.804688 60.390625 125.953125 62.488281 C 121.328125 62.414062 116.699219 62.503906 112.074219 62.472656 C 106.386719 62.488281 100.699219 62.171875 95.011719 62.441406 C 86.039062 62.480469 77.0625 62.441406 68.089844 62.46875 C 67.480469 62.449219 66.859375 62.582031 66.269531 62.402344 C 66.8125 60.441406 67.074219 58.410156 67.660156 56.460938 C 68.558594 56.464844 69.429688 56.1875 70.328125 56.222656 Z M 70.328125 56.222656 "/>
<path style=" stroke:none;fill-rule:nonzero;fill:rgb(43.529412%,54.901963%,93.725491%);fill-opacity:1;" d="M 0.152344 64.710938 C 8.554688 64.839844 16.957031 64.664062 25.359375 64.769531 C 27.945312 64.8125 30.523438 64.613281 33.109375 64.558594 C 36.96875 64.851562 40.847656 64.5625 44.703125 64.757812 C 44.453125 65.785156 44.121094 67.007812 44.808594 67.941406 C 45.640625 69.347656 47.433594 69.542969 48.5 70.699219 C 47.453125 70.851562 46.390625 70.796875 45.332031 70.835938 C 30.226562 70.777344 15.113281 70.886719 0.0078125 70.785156 C 0.03125 68.757812 0.179688 66.738281 0.152344 64.710938 Z M 0.152344 64.710938 "/>
<path style=" stroke:none;fill-rule:nonzero;fill:rgb(43.529412%,54.901963%,93.725491%);fill-opacity:1;" d="M 55.367188 64.621094 C 55.402344 64.773438 55.472656 65.082031 55.503906 65.238281 C 56.335938 65.199219 57.167969 65.226562 58 65.230469 C 58.089844 65.5625 58.171875 65.898438 58.246094 66.238281 C 57.199219 66.410156 56.160156 66.054688 55.160156 65.789062 C 55.113281 65.382812 55.203125 64.988281 55.367188 64.621094 Z M 55.367188 64.621094 "/>
<path style=" stroke:none;fill-rule:nonzero;fill:rgb(43.529412%,54.901963%,93.725491%);fill-opacity:1;" d="M 65.765625 64.734375 C 85.839844 64.683594 105.910156 64.789062 125.980469 64.710938 C 125.96875 66.75 126.019531 68.785156 125.984375 70.824219 C 108.097656 70.894531 90.210938 70.765625 72.328125 70.777344 C 70.894531 70.808594 69.457031 70.609375 68.027344 70.777344 C 68.042969 70.703125 68.074219 70.550781 68.09375 70.476562 C 68.855469 70.34375 69.636719 70.136719 70.410156 70.363281 C 70.757812 70.230469 69.765625 69.980469 69.828125 70.171875 C 69.257812 70.199219 68.695312 70.207031 68.128906 70.214844 C 68.246094 68.582031 67.128906 67.066406 65.601562 66.578125 C 65.601562 65.957031 65.636719 65.339844 65.765625 64.734375 Z M 65.765625 64.734375 "/>
<path style=" stroke:none;fill-rule:nonzero;fill:rgb(98.431373%,96.862745%,88.627452%);fill-opacity:1;" d="M 71.363281 19.78125 C 72.53125 19.371094 73.550781 18.523438 74.828125 18.449219 C 76.667969 18.332031 78.570312 18.246094 80.351562 18.804688 C 81.425781 19.140625 82.339844 19.828125 83.144531 20.597656 C 83.765625 21.113281 84.210938 21.800781 84.570312 22.519531 C 84.640625 22.589844 84.773438 22.738281 84.839844 22.808594 C 86.859375 23.277344 89.050781 23.246094 90.894531 24.308594 C 91.464844 25.789062 91.148438 27.359375 90.84375 28.859375 C 90.210938 29.710938 89.707031 30.710938 88.761719 31.269531 C 87.261719 32.523438 85.25 32.6875 83.402344 32.980469 C 82.570312 33.019531 82.316406 33.953125 81.84375 34.488281 C 81.144531 35.785156 80.972656 37.285156 80.925781 38.734375 C 80.476562 39.460938 79.960938 40.140625 79.394531 40.777344 C 78.671875 41.394531 79.046875 42.429688 78.832031 43.246094 C 78.609375 44.082031 78.480469 45.023438 77.902344 45.703125 C 77.078125 46.167969 76.6875 47.066406 76.097656 47.761719 C 75.054688 49.28125 73.933594 50.796875 72.484375 51.949219 C 71.347656 52.503906 70.242188 53.109375 69.261719 53.921875 C 68.9375 54.085938 68.574219 54.144531 68.222656 54.21875 C 67.933594 54.941406 67.941406 55.738281 67.660156 56.460938 C 67.074219 58.410156 66.8125 60.441406 66.269531 62.402344 C 66.0625 63.171875 65.921875 63.953125 65.765625 64.734375 C 65.636719 65.339844 65.601562 65.957031 65.601562 66.578125 C 67.128906 67.066406 68.246094 68.582031 68.128906 70.214844 C 68.695312 70.207031 69.257812 70.199219 69.828125 70.171875 C 69.765625 69.980469 70.757812 70.230469 70.410156 70.363281 C 69.636719 70.136719 68.855469 70.34375 68.09375 70.476562 C 68.074219 70.550781 68.042969 70.703125 68.027344 70.777344 C 68 70.921875 67.945312 71.21875 67.921875 71.367188 C 67.847656 71.46875 67.695312 71.671875 67.621094 71.773438 C 63.53125 72.003906 59.433594 71.722656 55.339844 71.902344 C 53.828125 71.917969 52.300781 72.082031 50.800781 71.839844 C 49.914062 71.734375 49.320312 70.980469 48.5 70.699219 C 47.433594 69.542969 45.640625 69.347656 44.808594 67.941406 C 44.121094 67.007812 44.453125 65.785156 44.703125 64.757812 L 44.746094 64.585938 C 44.914062 64.433594 45.074219 64.28125 45.238281 64.128906 C 45.175781 64.042969 45.058594 63.871094 45.003906 63.785156 C 43.886719 63.660156 42.804688 63.253906 41.875 62.617188 C 41.347656 62.257812 40.589844 62.460938 40.148438 61.949219 C 38.082031 62.289062 36.566406 64.355469 34.347656 64.167969 C 33.800781 64.160156 33.433594 63.78125 33.117188 63.386719 C 32.023438 63.519531 31.050781 64.441406 29.871094 64.222656 C 28.800781 63.953125 27.558594 63.558594 27.007812 62.511719 C 25.902344 62.460938 24.726562 62.679688 23.664062 62.277344 C 22.90625 61.832031 22.039062 61.375 21.691406 60.507812 C 21.441406 60.019531 21.441406 59.257812 20.761719 59.179688 C 19.257812 58.761719 17.683594 57.628906 17.679688 55.902344 C 17.332031 55.273438 17.019531 54.617188 16.855469 53.914062 C 16.28125 52.042969 16.558594 50.019531 17.179688 48.199219 L 17.238281 47.972656 C 17.691406 47.691406 18.058594 47.203125 18.621094 47.160156 C 19.570312 47.011719 20.460938 47.484375 21.238281 47.964844 C 22.417969 49.207031 23.84375 50.1875 25.234375 51.171875 C 27.230469 52.214844 29.28125 53.421875 31.59375 53.492188 C 33.207031 53.5625 34.910156 53.589844 36.402344 52.882812 C 36.597656 51.414062 36.671875 49.90625 37.1875 48.503906 C 37.316406 47.5 38.003906 46.707031 38.289062 45.757812 C 39.582031 43.597656 41.128906 41.585938 42.90625 39.800781 L 43.027344 39.667969 C 44.023438 38.96875 44.726562 37.886719 45.734375 37.179688 C 46.847656 36.417969 47.832031 35.46875 49.035156 34.835938 C 52.386719 33.046875 56.179688 32.449219 59.699219 31.113281 C 61.300781 30.566406 62.785156 29.734375 64.1875 28.789062 C 64.570312 28.546875 64.5 28.042969 64.460938 27.65625 C 64.992188 27.195312 65.613281 26.847656 66.253906 26.558594 C 67.179688 26.15625 67.804688 25.304688 68.699219 24.84375 C 68.421875 24.070312 68.292969 23.25 68.285156 22.425781 C 68.914062 21.203125 70.105469 20.277344 71.363281 19.78125 M 72.203125 21.53125 C 71.429688 21.921875 70.496094 22.222656 70.144531 23.105469 C 70.429688 23.859375 71.207031 24.203125 71.832031 24.621094 C 72.710938 25.925781 73.609375 27.410156 75.105469 28.058594 C 76.015625 27.703125 76.558594 26.777344 76.703125 25.84375 C 76.949219 24.550781 76.988281 23.234375 77.164062 21.933594 C 77.441406 22.039062 77.921875 21.957031 77.964844 22.367188 C 78.207031 23.601562 78.132812 24.875 78.0625 26.125 C 77.984375 27.492188 77.382812 29.035156 76.03125 29.578125 C 75.285156 30.019531 74.464844 29.53125 73.808594 29.164062 C 72.4375 28.328125 71.636719 26.871094 70.902344 25.492188 C 70.730469 25.070312 70.300781 25.371094 70.125 25.609375 C 69.382812 26.382812 68.746094 27.265625 67.875 27.902344 C 67.347656 28.457031 66.546875 28.390625 65.859375 28.515625 C 66.199219 29.097656 66.675781 29.664062 67.324219 29.898438 C 67.199219 30.296875 66.636719 30.179688 66.332031 30.335938 C 64.742188 30.609375 63.589844 31.863281 62.078125 32.328125 C 59.453125 33.589844 56.585938 34.15625 53.804688 34.949219 C 52.269531 35.371094 50.878906 36.167969 49.433594 36.808594 C 46.8125 38.523438 44.515625 40.726562 42.582031 43.191406 C 40.714844 45.46875 38.917969 48.042969 38.664062 51.078125 C 38.390625 51.996094 38.640625 53.023438 38.191406 53.878906 C 37.078125 54.863281 35.566406 55.261719 34.136719 55.476562 C 29.976562 55.882812 25.796875 54.207031 22.707031 51.445312 C 21.511719 50.625 20.378906 49.628906 19.015625 49.113281 C 18.855469 49.75 18.699219 50.394531 18.714844 51.058594 C 18.734375 51.941406 18.542969 52.953125 19.160156 53.6875 C 19.71875 54.46875 20.402344 55.21875 21.292969 55.613281 C 20.65625 55.636719 19.980469 56.1875 20.207031 56.878906 C 21.359375 57.574219 22.703125 57.824219 24.019531 57.976562 C 24.101562 58.65625 23.144531 58.882812 23.003906 59.554688 C 24.683594 60.714844 26.902344 60.539062 28.773438 59.984375 C 28.871094 60.59375 28.351562 61.074219 28.449219 61.691406 C 29.375 62.09375 30.457031 62.402344 31.425781 61.945312 C 32.347656 61.457031 33.21875 60.871094 34.164062 60.425781 C 34.171875 60.90625 34.105469 61.421875 34.332031 61.867188 C 34.78125 62.25 35.40625 61.894531 35.84375 61.652344 C 37.238281 60.726562 38.660156 59.789062 39.753906 58.5 C 39.863281 58.476562 40.078125 58.425781 40.1875 58.402344 C 40.199219 58.578125 40.226562 58.929688 40.242188 59.105469 C 41.480469 60.105469 42.835938 60.992188 44.363281 61.472656 C 45.605469 62.015625 46.988281 61.777344 48.296875 61.945312 C 48.230469 63.792969 46.441406 64.953125 46.199219 66.722656 C 46.6875 67.519531 47.589844 67.875 48.355469 68.335938 C 49.402344 69.011719 50.554688 69.484375 51.628906 70.101562 C 52.371094 70.554688 53.277344 70.308594 54.097656 70.371094 C 55.625 70.3125 57.167969 70.460938 58.6875 70.242188 C 58.960938 69.34375 58.460938 68.304688 57.5625 68.027344 C 56.34375 67.753906 54.964844 68.042969 53.886719 67.273438 C 53.164062 66.742188 52.253906 66.304688 51.953125 65.390625 C 53.152344 63.699219 54.945312 62.609375 56.539062 61.34375 C 58.386719 59.875 59.226562 57.339844 58.824219 55.035156 C 58.511719 53.273438 57.300781 51.691406 55.667969 50.988281 C 53.566406 50.054688 51.121094 49.953125 48.953125 50.703125 C 48.882812 50.382812 48.921875 50.058594 48.984375 49.742188 C 50.429688 48.476562 52.523438 48.214844 54.320312 48.765625 C 56.636719 49.445312 58.996094 50.765625 60.078125 53.039062 C 60.664062 54.582031 60.539062 56.28125 60.390625 57.890625 C 59.875 60.019531 60.113281 62.214844 59.886719 64.371094 C 59.753906 66.019531 60.070312 67.703125 60.828125 69.175781 C 61.179688 69.6875 61.640625 70.234375 62.285156 70.339844 C 63.386719 70.527344 64.511719 70.429688 65.625 70.453125 C 66.34375 70.300781 66.257812 69.429688 66.183594 68.871094 C 65.605469 68.441406 64.921875 68.214844 64.277344 67.914062 C 63.53125 67.5625 63.480469 66.601562 63.570312 65.886719 C 64.039062 63.113281 64.609375 60.359375 65.265625 57.628906 C 65.566406 56.226562 65.816406 54.800781 66.28125 53.441406 C 66.800781 52.449219 67.976562 52.171875 68.726562 51.414062 C 69.175781 51.023438 69.488281 50.503906 69.882812 50.0625 C 70.050781 49.816406 70.214844 49.566406 70.375 49.316406 C 70.714844 49.742188 70.433594 50.695312 71.109375 50.703125 C 72.40625 49.851562 73.121094 48.292969 73.378906 46.785156 C 73.484375 46.367188 73.40625 45.832031 73.816406 45.566406 C 74.128906 46.007812 74.226562 46.800781 74.90625 46.753906 C 75.210938 45.992188 75.550781 45.21875 75.527344 44.378906 C 76.0625 44.660156 76.507812 44.292969 76.664062 43.78125 C 76.929688 42.121094 76.320312 40.488281 76.476562 38.828125 C 77.140625 39.039062 77.394531 39.714844 77.84375 40.175781 C 78.117188 39.601562 78.527344 39.074219 78.671875 38.441406 C 78.859375 37.535156 78.785156 36.601562 78.933594 35.691406 C 79.492188 35.179688 79.605469 34.382812 79.871094 33.703125 C 80.222656 32.507812 81.234375 31.5 82.460938 31.25 C 84.078125 30.851562 85.832031 30.78125 87.296875 29.902344 C 88.796875 28.957031 89.242188 27.074219 89.339844 25.414062 C 87.589844 25.148438 85.796875 25.039062 84.109375 24.480469 C 82.878906 24.097656 82.730469 22.574219 81.789062 21.847656 C 80.269531 20.628906 78.242188 20.199219 76.335938 20.28125 C 74.855469 20.226562 73.511719 20.929688 72.203125 21.53125 M 57.8125 62.757812 C 57.070312 63.472656 56.300781 64.171875 55.4375 64.738281 C 56.34375 64.792969 57.253906 64.703125 58.160156 64.714844 C 58.21875 64.03125 58.3125 63.347656 58.296875 62.660156 C 58.179688 62.6875 57.933594 62.734375 57.8125 62.757812 M 55.367188 64.621094 C 55.203125 64.988281 55.113281 65.382812 55.160156 65.789062 C 56.160156 66.054688 57.199219 66.410156 58.246094 66.238281 C 58.171875 65.898438 58.089844 65.5625 58 65.230469 C 57.167969 65.226562 56.335938 65.199219 55.503906 65.238281 C 55.472656 65.082031 55.402344 64.773438 55.367188 64.621094 Z M 55.367188 64.621094 "/>
</g>
</svg>
