<svg viewBox="0 0 24 24" fill="none" xmlns="http://www.w3.org/2000/svg">
    <path fill-rule="evenodd" clip-rule="evenodd"
        d="M12 .5C5.65.5.5 5.65.5 12c0 5.08 3.29 9.375 7.865 10.88.575.1.785-.25.785-.55v-1.98c-3.185.7-3.785-1.525-3.785-1.525-.515-1.34-1.26-1.69-1.26-1.69-1.03-.705.075-.695.075-.695 1.14.08 1.735 1.17 1.735 1.17 1.015 1.74 2.66 1.24 3.31.95.1-.73.4-1.24.735-1.525-2.54-.3-5.215-1.27-5.215-5.635 0-1.245.44-2.26 1.165-3.06-.12-.3-.505-1.515.11-3.15 0 0 .95-.3 3.11 1.17.905-.25 1.87-.37 2.835-.375.965.005 1.93.13 2.835.38 2.15-1.47 3.1-1.17 3.1-1.17.62 1.635.24 2.845.12 3.145.725.8 1.165 1.82 1.165 3.065 0 4.37-2.675 5.325-5.225 5.625.41.35.785 1.055.785 2.125v3.16c0 .3.21.66.79.545C20.21 21.375 24 17.08 24 12c0-6.35-5.15-11.5-11.5-11.5z"
        fill="currentColor" />
</svg>